<svg width="37" height="47" viewBox="0 0 37 47" fill="none" xmlns="http://www.w3.org/2000/svg">
<g clip-path="url(#clip0_2777_367)">
<path d="M5.87654 43.9515C14.2765 44.7064 22.7234 44.7064 31.1233 43.9515C31.885 43.8852 32.5986 43.5377 33.1352 42.972C33.6717 42.4062 33.9957 41.6596 34.0485 40.8671C34.7219 31.121 34.7219 21.3372 34.0485 11.5911C33.9882 10.7968 33.6641 10.049 33.1316 9.47575C32.5992 8.90251 31.8915 8.5395 31.1299 8.44888L27.7139 8H9.28597C8.13423 8.14963 6.99557 8.30606 5.87 8.44888C5.10835 8.5395 4.40071 8.90251 3.86826 9.47575C3.33581 10.049 3.01168 10.7968 2.95137 11.5911C2.27793 21.3372 2.27793 31.121 2.95137 40.8671C3.00419 41.6596 3.32818 42.4062 3.86471 42.972C4.40125 43.5377 5.1149 43.8852 5.87654 43.9515Z" fill="#D9BBA0"/>
<path d="M14.1027 2.48413H22.8979C22.8979 2.48413 27.7535 2.48413 27.7535 7.53067V7.53407C27.7535 7.53407 27.7535 12.5806 22.8979 12.5806H14.1027C14.1027 12.5806 9.24707 12.5806 9.24707 7.53407V7.53067C9.24707 7.53067 9.24707 2.48413 14.1027 2.48413Z" fill="white"/>
<path d="M17.014 36.9428C15.8426 36.8169 14.9984 35.7593 14.9592 34.5351C14.933 33.5965 14.9101 32.6648 14.8937 31.7398C13.9873 31.723 13.0809 31.7003 12.1747 31.6718C10.9968 31.631 9.97919 30.7536 9.85485 29.5328C9.72677 28.2769 9.72677 27.0105 9.85485 25.7547C9.97919 24.5338 10.9968 23.6565 12.1747 23.6191C13.0909 23.5885 13.9939 23.5647 14.8905 23.5511L14.9592 20.7523C14.9984 19.5281 15.8426 18.4739 17.014 18.3447C18.2377 18.2087 19.4287 18.2087 20.6525 18.3447C21.8238 18.4705 22.668 19.5281 22.7073 20.7523C22.7335 21.6943 22.7564 22.6227 22.7727 23.5477L25.4394 23.6191C26.6173 23.6565 27.6349 24.5372 27.7593 25.7547C27.8869 27.0106 27.8869 28.2769 27.7593 29.5328C27.6349 30.7536 26.6206 31.631 25.4394 31.6684C24.5429 31.699 23.6562 31.7228 22.7727 31.7398C22.7564 32.6648 22.7335 33.5931 22.7073 34.5351C22.668 35.7593 21.8238 36.8135 20.6525 36.9428C19.4287 37.0788 18.2377 37.0788 17.014 36.9428Z" fill="white"/>
<path d="M9.28597 8C8.13423 8.14963 6.99557 8.30606 5.87 8.44888C5.10835 8.5395 4.40071 8.90251 3.86826 9.47575C3.33581 10.049 3.01168 10.7968 2.95137 11.5911C2.27793 21.3372 2.27793 31.121 2.95137 40.8671C3.00419 41.6596 3.32818 42.4062 3.86471 42.972C4.40125 43.5377 5.1149 43.8852 5.87654 43.9515C14.2765 44.7064 22.7234 44.7064 31.1233 43.9515C31.885 43.8852 32.5986 43.5377 33.1352 42.972C33.6717 42.4062 33.9957 41.6596 34.0485 40.8671C34.7219 31.121 34.7219 21.3372 34.0485 11.5911C33.9882 10.7968 33.6641 10.049 33.1316 9.47575C32.5992 8.90251 31.8915 8.5395 31.1299 8.44888L27.7139 8" stroke="#534439" stroke-width="3.43" stroke-linecap="round" stroke-linejoin="round"/>
<path d="M14.1027 2.48413H22.8979C22.8979 2.48413 27.7535 2.48413 27.7535 7.53067V7.53407C27.7535 7.53407 27.7535 12.5806 22.8979 12.5806H14.1027C14.1027 12.5806 9.24707 12.5806 9.24707 7.53407V7.53067C9.24707 7.53067 9.24707 2.48413 14.1027 2.48413Z" stroke="#534439" stroke-width="3.43" stroke-linecap="round" stroke-linejoin="round"/>
<path d="M17.014 36.9428C15.8426 36.8169 14.9984 35.7593 14.9592 34.5351C14.933 33.5965 14.9101 32.6648 14.8937 31.7398C13.9873 31.723 13.0809 31.7003 12.1747 31.6718C10.9968 31.631 9.97919 30.7536 9.85485 29.5328C9.72677 28.2769 9.72677 27.0105 9.85485 25.7547C9.97919 24.5338 10.9968 23.6565 12.1747 23.6191C13.0909 23.5885 13.9939 23.5647 14.8905 23.5511L14.9592 20.7523C14.9984 19.5281 15.8426 18.4739 17.014 18.3447C18.2377 18.2087 19.4287 18.2087 20.6525 18.3447C21.8238 18.4705 22.668 19.5281 22.7073 20.7523C22.7335 21.6943 22.7564 22.6227 22.7727 23.5477L25.4394 23.6191C26.6173 23.6565 27.6349 24.5372 27.7593 25.7547C27.8869 27.0106 27.8869 28.2769 27.7593 29.5328C27.6349 30.7536 26.6206 31.631 25.4394 31.6684C24.5429 31.699 23.6562 31.7228 22.7727 31.7398C22.7564 32.6648 22.7335 33.5931 22.7073 34.5351C22.668 35.7593 21.8238 36.8135 20.6525 36.9428C19.4287 37.0788 18.2377 37.0788 17.014 36.9428Z" stroke="#534439" stroke-width="3.43" stroke-linecap="round" stroke-linejoin="round"/>
</g>
<defs>
<clipPath id="clip0_2777_367">
<rect width="37" height="47" fill="white"/>
</clipPath>
</defs>
</svg>
