<svg width="39" height="40" viewBox="0 0 39 40" fill="none" xmlns="http://www.w3.org/2000/svg">
<g clip-path="url(#clip0_2600_273)">
<path d="M10.5756 37.2068C13.3611 37.3411 16.2065 37.4107 19.2948 37.4107C22.3831 37.4107 25.2285 37.3411 28.0139 37.2068C32.0441 37.0126 35.303 33.8292 35.7524 29.8196C36.0551 27.1194 36.3033 24.3511 36.3033 21.5311C36.3033 19.602 36.1872 17.697 36.017 15.8216H2.57263C2.40235 17.697 2.28613 19.602 2.28613 21.5311C2.28613 24.3511 2.53444 27.1194 2.8371 29.8196C3.28653 33.8292 6.54552 37.0126 10.5756 37.2068Z" fill="white"/>
<path d="M35.753 13.2427C35.8486 14.0957 35.9388 14.9555 36.0174 15.8216H2.57324C2.65188 14.9555 2.74208 14.0957 2.83768 13.2427C3.28711 9.23309 6.54613 6.04956 10.5761 5.85546C13.3616 5.7213 16.2071 5.65158 19.2954 5.65158C22.3836 5.65158 25.2291 5.7213 28.0146 5.85546C32.0445 6.04956 35.3037 9.23309 35.753 13.2427Z" fill="#AAE9BE"/>
<path d="M2.8371 29.8196C3.28653 33.8292 6.54552 37.0126 10.5756 37.2068C13.3611 37.3411 16.2065 37.4107 19.2948 37.4107C22.3831 37.4107 25.2285 37.3411 28.0139 37.2068C32.0441 37.0126 35.303 33.8292 35.7524 29.8196C36.0551 27.1194 36.3033 24.3511 36.3033 21.5311C36.3033 18.7111 36.0551 15.9428 35.7524 13.2427C35.303 9.23309 32.0441 6.04956 28.0139 5.85546C25.2285 5.7213 22.3831 5.65158 19.2948 5.65158C16.2065 5.65158 13.3611 5.7213 10.5756 5.85546C6.54555 6.04956 3.28653 9.23309 2.8371 13.2427C2.53444 15.9428 2.28613 18.7111 2.28613 21.5311C2.28613 24.3511 2.53444 27.1194 2.8371 29.8196Z" stroke="#3F6E4F" stroke-width="3.43" stroke-linecap="round" stroke-linejoin="round"/>
<path d="M11.3486 2.58984V9.55391" stroke="#3F6E4F" stroke-width="3.43" stroke-linecap="round" stroke-linejoin="round"/>
<path d="M26.6602 2.58984V9.55391" stroke="#3F6E4F" stroke-width="3.43" stroke-linecap="round" stroke-linejoin="round"/>
<path d="M2.57324 15.8216H36.0174" stroke="#3F6E4F" stroke-width="3.43" stroke-linecap="round" stroke-linejoin="round"/>
</g>
<defs>
<clipPath id="clip0_2600_273">
<rect width="39" height="40" fill="white"/>
</clipPath>
</defs>
</svg>
