<svg width="48" height="48" viewBox="0 0 48 48" fill="none" xmlns="http://www.w3.org/2000/svg">
<path d="M8.082 20.8164L3.30664 23.9999C3.30664 35.8499 10.7449 43.1014 23.9999 43.1014C37.255 43.1014 44.6931 35.8499 44.6931 23.9999L39.9177 20.8164V7.00429C39.9177 4.06469 36.2741 2.69562 34.3382 4.9079L28.7752 11.2657L28.8704 11.2924C27.6643 11.0203 26.085 10.818 23.9999 10.818C21.9147 10.818 20.3354 11.0203 19.1293 11.2924L19.2245 11.2657L13.6615 4.9079C11.7257 2.69562 8.082 4.06469 8.082 7.00429V20.8164Z" fill="#D9BBA0"/>
<path d="M20.8164 27.1836L24 28.7754L27.1835 27.1836" stroke="#534439" stroke-width="3.43" stroke-linecap="round" stroke-linejoin="round"/>
<path d="M24 28.7754V32.1478" stroke="#534439" stroke-width="3.43" stroke-linecap="round" stroke-linejoin="round"/>
<path d="M17.6328 33.5507L18.0705 33.9885C19.491 35.409 21.8561 35.1747 22.9705 33.5032L24 31.9589L25.0294 33.5032C26.1438 35.1747 28.5089 35.409 29.9295 33.9885L30.3671 33.5507" stroke="#534439" stroke-width="3.43" stroke-linecap="round" stroke-linejoin="round"/>
<path d="M19.2245 11.2657L13.6615 4.90797C11.7257 2.69568 8.082 4.06475 8.082 7.00435V20.8164L3.30664 24C3.30664 35.8499 10.7449 43.1014 23.9999 43.1014C37.255 43.1014 44.6931 35.8499 44.6931 24L39.9177 20.8164V7.00435C39.9177 4.06475 36.2741 2.69568 34.3382 4.90797L28.7752 11.2657" stroke="#534439" stroke-width="3.43" stroke-linecap="round" stroke-linejoin="round"/>
<path d="M17.6328 20.8164V22.4082" stroke="#534439" stroke-width="3.43" stroke-linecap="round" stroke-linejoin="round"/>
<path d="M30.3672 20.8164V22.4082" stroke="#534439" stroke-width="3.43" stroke-linecap="round" stroke-linejoin="round"/>
<path d="M16.041 12.4098C17.1022 11.8792 19.2246 10.818 23.9999 10.818C28.7753 10.818 30.8977 11.8792 31.9589 12.4098" stroke="#534439" stroke-width="3.43" stroke-linecap="round" stroke-linejoin="round"/>
</svg>
