<svg width="45" height="47" viewBox="0 0 45 47" fill="none" xmlns="http://www.w3.org/2000/svg">
<path d="M23.0123 44.5C16.3843 44.5 10.5498 42.3576 6.72141 38C3.61847 34.4681 1.8335 29.481 2.01227 23C2.20199 16.1219 4.24282 11.0392 7.5127 7.5985C11.1253 3.79712 16.2381 1.99995 22.0123 2C33.0127 2.00009 43.0123 10.5 43.0123 23C43.0123 35.5 35.0123 44.5 23.0123 44.5Z" fill="#D9BBA0"/>
<path d="M6.72141 38C10.5498 42.3576 16.3843 44.5 23.0123 44.5C35.0123 44.5 43.0123 35.5 43.0123 23C43.0123 10.5 33.0127 2.00009 22.0123 2C16.2381 1.99995 11.1253 3.79712 7.5127 7.5985M6.72141 38C3.61847 34.4681 1.8335 29.481 2.01227 23C2.20199 16.1219 4.24282 11.0392 7.5127 7.5985M6.72141 38L37.0127 9M38.5127 38L7.5127 7.5985" stroke="#534439" stroke-width="3.58"/>
</svg>
