<svg width="48" height="48" viewBox="0 0 48 48" fill="none" xmlns="http://www.w3.org/2000/svg">
<path d="M9.58936 32.5436C9.58936 31.009 9.71779 29.3846 9.92303 27.7682H8.3237C-1.22682 26.1764 5.04536 12.4671 9.58924 8.66677C13.1605 5.67995 19.7983 4.31409 24.0012 4.31409C28.2041 4.31409 34.8418 5.67995 38.4131 8.66677C42.957 12.4671 49.2293 26.1764 39.6786 27.7682H37.9079C38.1132 29.3846 38.2415 31.009 38.2415 32.5436C38.2415 42.0941 31.8744 43.6859 23.9154 43.6859C15.9565 43.6859 9.58936 42.0941 9.58936 32.5436Z" fill="#D9BBA0"/>
<path d="M12.7715 15.0338C12.7715 15.0338 9.58789 24.9028 9.58789 32.5434C9.58789 42.0941 15.955 43.6859 23.914 43.6859C31.8729 43.6859 38.2399 42.0941 38.2399 32.5434C38.2399 24.9028 35.0563 15.0338 35.0563 15.0338" stroke="#534439" stroke-width="3.43" stroke-linecap="round" stroke-linejoin="round"/>
<path d="M20.7305 32.5434L23.914 34.1352L27.0976 32.5434" stroke="#534439" stroke-width="3.43" stroke-linecap="round" stroke-linejoin="round"/>
<path d="M29.4854 21.4009V22.9927" stroke="#534439" stroke-width="3.43" stroke-linecap="round" stroke-linejoin="round"/>
<path d="M18.3428 21.4009V22.9927" stroke="#534439" stroke-width="3.43" stroke-linecap="round" stroke-linejoin="round"/>
<path d="M9.92318 27.7682H8.32175C-1.22877 26.1764 5.0434 12.4671 9.58728 8.66677C13.1586 5.67995 19.7964 4.31408 23.9993 4.31409C28.2021 4.31409 34.8398 5.67995 38.4111 8.66677C42.9551 12.4671 49.2273 26.1764 39.6769 27.7682H37.9161" stroke="#534439" stroke-width="3.43" stroke-linecap="round" stroke-linejoin="round"/>
</svg>
