<svg width="40" height="40" viewBox="0 0 40 40" fill="none" xmlns="http://www.w3.org/2000/svg">
<g clip-path="url(#clip0_2584_161)">
<path fill-rule="evenodd" clip-rule="evenodd" d="M23.6741 23.9246C20.9764 22.5738 17.9315 21.8136 14.7092 21.8136C10.6042 21.8136 6.7874 23.0473 3.6092 25.164C0.0659936 27.5239 2.45855 32.0754 6.7157 32.0754H18.3527L18.6789 30.5414C18.8532 29.7216 19.2358 28.9605 19.7899 28.3319L23.6741 23.9246Z" fill="#AAE9BE"/>
<path d="M22.5406 23.4008C20.1347 22.3789 17.4879 21.8136 14.7092 21.8136C10.6042 21.8136 6.7874 23.0473 3.6092 25.164C0.0659936 27.5239 2.45855 32.0754 6.7157 32.0754H16.9098" stroke="#3F6E4F" stroke-width="2.96714" stroke-linecap="round" stroke-linejoin="round"/>
<path d="M14.7145 16.381C19.3504 16.381 21.9582 13.7732 21.9582 9.13719C21.9582 4.50121 19.3504 1.89345 14.7145 1.89345C10.0785 1.89345 7.4707 4.50121 7.4707 9.13719C7.4707 13.7732 10.0785 16.381 14.7145 16.381Z" fill="#AAE9BE"/>
<path d="M14.7145 16.381C19.3504 16.381 21.9582 13.7732 21.9582 9.13719C21.9582 4.50118 19.3504 1.89345 14.7145 1.89345C10.0785 1.89345 7.4707 4.50118 7.4707 9.13719C7.4707 13.7732 10.0785 16.381 14.7145 16.381Z" stroke="#3F6E4F" stroke-width="2.96714" stroke-linecap="round" stroke-linejoin="round"/>
<path d="M31.4332 22.4983L23.4498 31.557L22.3561 36.7009C22.1801 37.5288 23.0429 38.3119 23.8509 38.0578L28.9699 36.4486L37.2162 27.7718C38.5856 26.3306 38.3466 23.9203 36.6889 22.4539C35.0699 21.022 32.7169 21.0418 31.4332 22.4983Z" fill="white"/>
<path d="M31.4332 22.4983L23.4498 31.557L22.3561 36.7009C22.1801 37.5288 23.0429 38.3119 23.8509 38.0578L28.9699 36.4486L37.2162 27.7718C38.5856 26.3306 38.3466 23.9203 36.6889 22.4539C35.0699 21.022 32.7169 21.0418 31.4332 22.4983Z" stroke="#3F6E4F" stroke-width="2.96714" stroke-linecap="round" stroke-linejoin="round"/>
</g>
<defs>
<clipPath id="clip0_2584_161">
<rect width="40" height="40" fill="white"/>
</clipPath>
</defs>
</svg>
