<svg width="48" height="48" viewBox="0 0 48 48" fill="none" xmlns="http://www.w3.org/2000/svg">
<path d="M36.56 32.9734C43.5973 29.7017 46.2454 20.5196 42.365 13.7987C38.4848 7.07783 29.2087 4.78017 22.8567 9.23877C19.2482 11.7716 16.3188 14.8498 13.8948 19.4752C12.9574 21.2638 12.7993 23.29 13.2562 25.2146C9.24658 24.2978 4.67408 23.2179 3.96508 26.832C3.39094 29.7586 6.15702 31.6755 7.46903 33.948C8.84485 36.3309 9.01214 39.369 11.8797 40.5406C14.683 41.6857 16.7155 37.2328 17.9263 33.3018C19.3643 34.6586 21.1972 35.5341 23.2139 35.6165C28.4316 35.8298 32.5621 34.8321 36.56 32.9734Z" fill="#D9BBA0"/>
<path d="M36.56 32.9742C43.5973 29.7025 46.2454 20.5204 42.365 13.7995C38.4848 7.07858 29.2087 4.78094 22.8567 9.23953C19.2482 11.7724 16.3188 14.8506 13.8948 19.476C12.9574 21.2646 12.7993 23.2908 13.2562 25.2153C9.24658 24.2986 4.67408 23.2187 3.96508 26.8327C3.39094 29.7594 6.15702 31.6763 7.46903 33.9487C8.84485 36.3316 9.01214 39.3696 11.8797 40.5412C14.683 41.6863 16.7155 37.2335 17.9263 33.3025C19.3643 34.6595 21.1972 35.5347 23.2139 35.6172C28.4316 35.8308 32.5621 34.8327 36.56 32.9742Z" stroke="#534439" stroke-width="3.43" stroke-linecap="round" stroke-linejoin="round"/>
<path d="M26.9815 13.8959C26.4069 17.0373 27.1355 24.0904 34.6462 27.1716" stroke="#534439" stroke-width="3.43" stroke-linecap="round" stroke-linejoin="round"/>
<path d="M34.7656 17.3849L35.1155 17.9905" stroke="#534439" stroke-width="3.43" stroke-linecap="round" stroke-linejoin="round"/>
</svg>
