<svg width="57" height="56" viewBox="0 0 57 56" fill="none" xmlns="http://www.w3.org/2000/svg">
<path d="M9.96357 52.1093C6.17413 51.6725 3.15142 48.6711 2.71536 44.9097L2.50179 27.976C9.1035 17.2642 14.5043 11.1232 26.209 3.123C27.4243 2.29233 29.027 2.29233 30.2423 3.12301C41.9471 11.1232 47.3477 17.2642 53.9494 27.976L53.7359 44.9098C53.3001 48.6711 50.2772 51.6725 46.4877 52.1093L46.5449 52.606L46.4876 52.1093C34.8087 53.456 21.6427 53.456 9.96359 52.1093L9.90632 52.606L9.96357 52.1093Z" fill="#D9BBA0" stroke="#534439"/>
<path d="M2.21572 44.9414L2 27.8373C8.6701 16.9944 14.1148 10.7838 25.9268 2.71021C27.3123 1.76326 29.139 1.76326 30.5245 2.71021C42.3366 10.7838 47.7811 16.9944 54.4512 27.8373L54.2355 44.9414C53.7836 48.9482 50.5711 52.1419 46.5449 52.606C34.8279 53.9571 21.6234 53.9571 9.90632 52.606C5.88019 52.1419 2.66791 48.9482 2.21572 44.9414Z" stroke="#534439" stroke-width="3.43" stroke-linecap="round" stroke-linejoin="round"/>
<path d="M2.21572 44.9414L2 27.8373C8.6701 16.9944 14.1148 10.7838 25.9268 2.71021C27.3123 1.76326 29.139 1.76326 30.5245 2.71021C42.3366 10.7838 47.7811 16.9944 54.4512 27.8373L54.2355 44.9414C53.7836 48.9482 50.5711 52.1419 46.5449 52.606C34.8279 53.9571 21.6234 53.9571 9.90632 52.606C5.88019 52.1419 2.66791 48.9482 2.21572 44.9414Z" stroke="#534439" stroke-width="3.43" stroke-linecap="round" stroke-linejoin="round"/>
<path d="M14.9992 32.9759C14.1917 32.9759 13.5372 32.1579 13.5372 31.1488C13.5372 30.1397 14.1917 29.3216 14.9992 29.3216" stroke="#534439" stroke-width="3.43" stroke-linecap="round" stroke-linejoin="round"/>
<path d="M14.9989 32.9759C15.8063 32.9759 16.4609 32.1579 16.4609 31.1488C16.4609 30.1397 15.8063 29.3216 14.9989 29.3216" stroke="#534439" stroke-width="3.43" stroke-linecap="round" stroke-linejoin="round"/>
<path d="M35.1993 40.6941C35.1993 42.2098 34.3226 43.3352 32.9613 44.1072C31.5899 44.8849 29.7784 45.2655 28.0921 45.2655C26.4059 45.2655 24.5943 44.8849 23.223 44.1072C21.8617 43.3352 20.985 42.2098 20.985 40.6941C20.985 39.0476 21.587 36.9304 22.7941 35.2345C23.9934 33.5495 25.7573 32.3193 28.0921 32.3193C30.427 32.3193 32.1909 33.5495 33.3901 35.2345C34.5972 36.9304 35.1993 39.0476 35.1993 40.6941Z" fill="white" stroke="#534439"/>
<path d="M35.6993 40.6941C35.6993 44.1936 31.5914 45.7655 28.0921 45.7655C24.5928 45.7655 20.485 44.1936 20.485 40.6941C20.485 37.195 23.0207 31.8193 28.0921 31.8193C33.1636 31.8193 35.6993 37.195 35.6993 40.6941Z" stroke="#534439" stroke-width="3.43" stroke-linecap="round" stroke-linejoin="round"/>
<path d="M22.699 24.8746C21.8916 24.8746 21.2371 24.0566 21.2371 23.0475C21.2371 22.0384 21.8916 21.2204 22.699 21.2204" stroke="#534439" stroke-width="3.43" stroke-linecap="round" stroke-linejoin="round"/>
<path d="M22.6986 24.8751C23.506 24.8751 24.1606 24.0571 24.1606 23.048C24.1606 22.0389 23.506 21.2209 22.6986 21.2209" stroke="#534439" stroke-width="3.43" stroke-linecap="round" stroke-linejoin="round"/>
<path d="M41.1835 32.9759C41.9912 32.9759 42.6458 32.1579 42.6458 31.1488C42.6458 30.1397 41.9912 29.3216 41.1835 29.3216" stroke="#534439" stroke-width="3.43" stroke-linecap="round" stroke-linejoin="round"/>
<path d="M41.184 32.9759C40.3765 32.9759 39.7219 32.1579 39.7219 31.1488C39.7219 30.1397 40.3765 29.3216 41.184 29.3216" stroke="#534439" stroke-width="3.43" stroke-linecap="round" stroke-linejoin="round"/>
<path d="M33.4839 24.8746C34.2913 24.8746 34.9459 24.0566 34.9459 23.0475C34.9459 22.0384 34.2913 21.2204 33.4839 21.2204" stroke="#534439" stroke-width="3.43" stroke-linecap="round" stroke-linejoin="round"/>
<path d="M33.4841 24.875C32.6766 24.875 32.0221 24.057 32.0221 23.0479C32.0221 22.0388 32.6766 21.2208 33.4841 21.2208" stroke="#534439" stroke-width="3.43" stroke-linecap="round" stroke-linejoin="round"/>
</svg>
