<svg width="42" height="42" viewBox="0 0 42 42" fill="none" xmlns="http://www.w3.org/2000/svg">
<path d="M7.39121 33.0974C13.6435 40.4395 28.3571 40.4395 34.6095 33.0974C40.3682 26.3347 39.9312 13.0981 32.9997 7.30837C26.7913 2.1225 15.2093 2.1225 9.00083 7.30837C2.06949 13.0981 1.63241 26.3347 7.39121 33.0974Z" fill="#D9BBA0"/>
<path d="M7.39121 33.0974C13.6435 40.4395 28.3571 40.4395 34.6095 33.0974C40.3682 26.3347 39.9312 13.0981 32.9997 7.30837C26.7913 2.1225 15.2093 2.1225 9.00083 7.30837C2.06949 13.0981 1.63241 26.3347 7.39121 33.0974Z" stroke="#534439" stroke-width="3.43" stroke-linecap="round" stroke-linejoin="round"/>
<path d="M17.5068 18.2144H18.8898C20.4283 18.2144 21.6754 19.4616 21.6754 21V28.6188" stroke="#534439" stroke-width="3.43" stroke-linecap="round" stroke-linejoin="round"/>
<path d="M17.5479 28.6188H25.8442" stroke="#534439" stroke-width="3.43" stroke-linecap="round" stroke-linejoin="round"/>
<path d="M21.7168 11.8626V12.7618" stroke="#534439" stroke-width="3.43" stroke-linecap="round" stroke-linejoin="round"/>
</svg>
