<svg width="246" height="246" viewBox="0 0 246 246" fill="none" xmlns="http://www.w3.org/2000/svg">
<path d="M106.171 12.0368C116.003 4.86494 129.341 4.86494 139.173 12.0368L147.496 18.1079C152.303 21.6141 158.101 23.4981 164.051 23.4868L174.352 23.4672C186.522 23.444 197.313 31.2842 201.052 42.8654L204.216 52.6691C206.044 58.3308 209.628 63.2633 214.448 66.7511L222.794 72.7905C232.653 79.9249 236.774 92.6106 232.992 104.177L229.79 113.969C227.94 119.624 227.94 125.721 229.79 131.375L232.992 141.167C236.774 152.734 232.653 165.419 222.794 172.554L214.448 178.593C209.628 182.081 206.044 187.014 204.216 192.675L201.052 202.479C197.313 214.06 186.522 221.9 174.352 221.877L164.051 221.858C158.101 221.846 152.303 223.73 147.496 227.236L139.173 233.308C129.341 240.479 116.003 240.479 106.171 233.308L97.8483 227.236C93.0417 223.73 87.2433 221.846 81.2938 221.858L70.992 221.877C58.8224 221.9 48.0313 214.06 44.2927 202.479L41.1279 192.675C39.3002 187.014 35.7166 182.081 30.8967 178.593L22.5508 172.554C12.6918 165.419 8.56992 152.734 12.3526 141.167L15.5547 131.375C17.4039 125.721 17.4039 119.624 15.5547 113.969L12.3526 104.177C8.56992 92.6106 12.6918 79.9249 22.5508 72.7905L30.8967 66.7511C35.7166 63.2633 39.3002 58.3308 41.1279 52.6691L44.2927 42.8654C48.0313 31.2842 58.8224 23.444 70.992 23.4672L81.2938 23.4868C87.2433 23.4981 93.0417 21.6141 97.8483 18.108L106.171 12.0368Z" fill="#B98E6E"/>
<path d="M79.6364 163.295C50.2755 137.151 52.6887 68.3745 74.8099 42.6335C83.0592 49.0686 87.1448 54.5013 94.1157 71.5922C107 66.9879 116.859 67.1468 122.087 67.1673C127.326 67.1462 137.169 66.9989 150.022 71.5923C156.993 54.5015 161.079 49.0687 169.328 42.6336C191.449 68.3747 193.862 137.152 164.501 163.295C163.319 154.575 159.273 151.631 151.631 151.631C143.185 151.631 137.152 155.653 127.901 167.317C123.806 168.788 121.289 168.77 116.237 167.317C106.986 155.653 100.953 151.631 92.5069 151.631C84.865 151.631 80.8183 154.574 79.6364 163.295Z" fill="white"/>
<circle cx="150.424" cy="111.813" r="8.84848" fill="#B98E6E"/>
<circle cx="96.5289" cy="111.813" r="8.84848" fill="#B98E6E"/>
<path d="M117.444 131.521C118.519 129.504 120.016 129.013 123.477 128.705C126.937 129.013 128.434 129.504 129.51 131.521C128.818 134.891 127.356 135.922 123.477 136.749C119.598 135.922 118.135 134.891 117.444 131.521Z" fill="#B98E6E" stroke="white"/>
<path d="M109.305 166.915C115.469 174.238 112.925 181.796 108.099 180.992C112.234 183.038 112.917 184.313 108.501 187.025C115.8 189.064 116.947 192.253 106.49 200.298C96.4346 207.537 87.9883 207.537 86.3795 199.091C85.1729 188.634 89.1949 185.014 88.3905 180.59C87.1839 171.339 81.8569 167.185 83.5641 162.49C86.7817 153.642 96.9435 154.471 109.305 166.915Z" fill="white"/>
<path d="M136.749 180.992C131.923 181.796 129.379 174.238 135.543 166.915C147.904 154.471 158.066 153.642 161.284 162.49C162.991 167.185 157.664 171.339 156.457 180.59C155.653 185.014 159.675 188.634 158.468 199.091C156.86 207.537 148.413 207.537 138.358 200.298C127.901 192.253 129.048 189.064 136.347 187.025C131.93 184.313 132.614 183.038 136.749 180.992Z" fill="white"/>
<path d="M113.824 182.601C114.081 191.412 116.957 191.092 122.27 191.449H123.074C128.388 191.092 131.263 191.412 131.521 182.601C131.302 174.564 129.255 173.047 123.074 172.948H122.27C116.09 173.047 114.042 174.564 113.824 182.601Z" fill="white"/>
<path d="M109.305 166.915C115.469 174.238 112.925 181.796 108.099 180.992C112.234 183.038 112.917 184.313 108.501 187.025C115.8 189.064 116.947 192.253 106.49 200.298C96.4346 207.537 87.9883 207.537 86.3795 199.091C85.1729 188.634 89.1949 185.014 88.3905 180.59C87.1839 171.339 81.8569 167.185 83.5641 162.49C86.7817 153.642 96.9435 154.471 109.305 166.915Z" stroke="#B98E6E"/>
<path d="M136.749 180.992C131.923 181.796 129.379 174.238 135.543 166.915C147.904 154.471 158.066 153.642 161.284 162.49C162.991 167.185 157.664 171.339 156.457 180.59C155.653 185.014 159.675 188.634 158.468 199.091C156.86 207.537 148.413 207.537 138.358 200.298C127.901 192.253 129.048 189.064 136.347 187.025C131.93 184.313 132.614 183.038 136.749 180.992Z" stroke="#B98E6E"/>
<path d="M113.824 182.601C114.081 191.412 116.957 191.092 122.27 191.449H123.074C128.388 191.092 131.263 191.412 131.521 182.601C131.302 174.564 129.255 173.047 123.074 172.948H122.27C116.09 173.047 114.042 174.564 113.824 182.601Z" stroke="#B98E6E"/>
</svg>
