<svg width="42" height="42" viewBox="0 0 42 42" fill="none" xmlns="http://www.w3.org/2000/svg">
<path d="M4.2926 32.5548C4.59131 35.229 6.72888 37.3655 9.40172 37.6747C12.4219 38.0241 15.5428 38.3687 18.736 38.3687C21.9291 38.3687 25.0499 38.0241 28.0702 37.6747C30.7431 37.3655 32.8805 35.229 33.1794 32.5548C33.5151 29.5491 33.839 26.4432 33.839 23.2655C33.839 20.0879 33.5151 16.9821 33.1794 13.9762C32.8805 11.3021 30.7431 9.16558 28.0702 8.8564C25.0499 8.50703 21.9291 8.16239 18.736 8.16239C15.5428 8.16239 12.4219 8.50703 9.40172 8.8564C6.72888 9.16558 4.59131 11.3021 4.2926 13.9762C3.95682 16.9821 3.63281 20.0879 3.63281 23.2655C3.63281 26.4432 3.95682 29.5491 4.2926 32.5548Z" fill="#D9BBA0"/>
<path d="M16.5144 8.21443C14.0929 8.32349 11.7177 8.58862 9.40175 8.85652C6.72888 9.16569 4.59131 11.3022 4.2926 13.9763C3.95682 16.9822 3.63281 20.088 3.63281 23.2656C3.63281 26.4433 3.95682 29.5491 4.2926 32.5551C4.59131 35.229 6.72888 37.3656 9.40172 37.6748C12.4219 38.0241 15.5428 38.3689 18.736 38.3689C21.9291 38.3689 25.0499 38.0241 28.0702 37.6748C30.7431 37.3656 32.8805 35.2293 33.1794 32.5551C33.4209 30.3929 33.6563 28.1789 33.7694 25.9237" stroke="#534439" stroke-width="3.43" stroke-linecap="round" stroke-linejoin="round"/>
<path d="M29.6586 5.1294L19.3939 16.7765L17.9877 23.3905C17.7614 24.4547 18.8707 25.4617 19.9096 25.1351L26.4915 23.0659L37.094 11.9098C38.8548 10.0568 38.5475 6.95772 36.416 5.07238C34.3345 3.2312 31.3091 3.25673 29.6586 5.1294Z" fill="white"/>
<path d="M29.6586 5.1294L19.3939 16.7765L17.9877 23.3905C17.7614 24.4547 18.8707 25.4617 19.9096 25.1351L26.4915 23.0659L37.094 11.9098C38.8548 10.0568 38.5475 6.95772 36.416 5.07238C34.3345 3.2312 31.3091 3.25673 29.6586 5.1294Z" stroke="#534439" stroke-width="3.43" stroke-linecap="round" stroke-linejoin="round"/>
</svg>
