<svg width="64" height="64" viewBox="0 0 64 64" fill="none" xmlns="http://www.w3.org/2000/svg">
<path d="M3.97034 47.0095C4.68298 53.6706 10.0403 59.028 16.6981 59.7701C21.6432 60.3212 26.7206 60.7946 31.8973 60.7946C37.074 60.7946 42.1514 60.3212 47.0964 59.7701C53.7543 59.028 59.1117 53.6706 59.8242 47.0095C60.3503 42.0924 60.7946 37.0441 60.7946 31.8973C60.7946 26.7505 60.3503 21.7023 59.8242 16.785C59.1117 10.1241 53.7543 4.76671 47.0964 4.02462C42.1514 3.47342 37.074 3 31.8973 3C26.7206 3 21.6432 3.47342 16.6981 4.02462C10.0403 4.76671 4.68298 10.1241 3.97034 16.785C3.44425 21.7023 3 26.7505 3 31.8973C3 37.0441 3.44425 42.0924 3.97034 47.0095Z" fill="white"/>
<path d="M3.97034 47.0095C4.68298 53.6706 10.0403 59.028 16.6981 59.7701C21.6432 60.3212 26.7206 60.7946 31.8973 60.7946C37.074 60.7946 42.1514 60.3212 47.0964 59.7701C53.7543 59.028 59.1117 53.6706 59.8242 47.0095C60.3503 42.0924 60.7946 37.0441 60.7946 31.8973C60.7946 26.7505 60.3503 21.7023 59.8242 16.785C59.1117 10.1241 53.7543 4.76671 47.0964 4.02462C42.1514 3.47342 37.074 3 31.8973 3C26.7206 3 21.6432 3.47342 16.6981 4.02462C10.0403 4.76671 4.68298 10.1241 3.97034 16.785C3.44425 21.7023 3 26.7505 3 31.8973C3 37.0441 3.44425 42.0924 3.97034 47.0095Z" fill="white" stroke="#534439" stroke-width="4.98147" stroke-linecap="round" stroke-linejoin="round"/>
<path d="M21.8809 31.6313H41.3738Z" fill="white"/>
<path d="M21.8809 31.6313H41.3738" stroke="#534439" stroke-width="4.98147" stroke-linecap="round" stroke-linejoin="round"/>
<path d="M31.6221 21.8802V41.3778Z" fill="white"/>
<path d="M31.6221 21.8802V41.3778" stroke="#534439" stroke-width="4.98147" stroke-linecap="round" stroke-linejoin="round"/>
</svg>
