<svg width="48" height="48" viewBox="0 0 48 48" fill="none" xmlns="http://www.w3.org/2000/svg">
<path d="M9.3916 9.39129L15.1307 15.6522L21.3916 18.7826L28.6959 17.7391L35.8497 11.0963M12.0003 22.9565L13.0438 31.8261L22.4351 38.6087L30.2612 34.9565L28.6959 27.6522L22.9568 26.0869L32.8699 25.5652L18.2612 27.6522L35.4786 26.6087M37.5655 10.9565H36.0003L35.8497 11.0963M35.8497 11.0963L36.522 8.34781M30.2612 19.3043H33.3916M32.3481 32.8695H31.3046" stroke="#D9BBA0" stroke-width="13.5652" stroke-linecap="round"/>
<path d="M16.6963 26.0869V28.1739" stroke="#534439" stroke-width="3.57913" stroke-linecap="round"/>
<path d="M31.3047 26.0869V28.1739" stroke="#534439" stroke-width="3.57913" stroke-linecap="round"/>
<path d="M26.088 33.913C25.5666 33.3913 22.4358 33.3913 21.9141 33.913C21.3923 34.4348 23.4796 36.5217 24.001 36.5217C24.5225 36.5217 26.6094 34.4348 26.088 33.913Z" fill="white" stroke="#534439" stroke-width="3.57913" stroke-linecap="round"/>
<path d="M24 45.3913C36 45.3913 43.8261 31.8261 39.6522 19.8261" stroke="#534439" stroke-width="3.57913" stroke-linecap="round"/>
<path d="M27.6523 9.91301C35.9833 -8.02367 54.7542 9.17314 39.6523 19.3043" stroke="#534439" stroke-width="3.57913" stroke-linecap="round"/>
<path d="M23.4355 45.376C12.5218 45.376 3.60946 31.8108 7.78337 19.8108" stroke="#534439" stroke-width="3.57913" stroke-linecap="round"/>
<path d="M19.7842 9.89772C11.4532 -8.03896 -7.31764 9.15785 7.78418 19.289" stroke="#534439" stroke-width="3.57913" stroke-linecap="round"/>
<path d="M19.8262 9.91302H27.6523" stroke="#534439" stroke-width="3.57913" stroke-linecap="round"/>
<path d="M36.5225 39.6522L40.6964 44.3478M40.1746 33.3913L45.392 35.4783" stroke="#534439" stroke-width="3.57913" stroke-linecap="round"/>
<path d="M10.957 39.6522L6.78312 44.3478M7.30486 33.3913L2.08747 35.4783" stroke="#534439" stroke-width="3.57913" stroke-linecap="round"/>
</svg>
