<svg width="19" height="11" viewBox="0 0 19 11" fill="none" xmlns="http://www.w3.org/2000/svg">
<path fill-rule="evenodd" clip-rule="evenodd" d="M0.214683 0.983482C0.282563 0.91543 0.363201 0.861438 0.451979 0.8246C0.540758 0.787761 0.635931 0.768799 0.732049 0.768799C0.828167 0.768799 0.923341 0.787761 1.01212 0.8246C1.1009 0.861438 1.18154 0.91543 1.24942 0.983482L9.50096 9.23649L17.7525 0.983482C17.8205 0.91554 17.9011 0.861646 17.9899 0.824876C18.0787 0.788107 18.1738 0.769181 18.2699 0.769181C18.366 0.769181 18.4611 0.788107 18.5499 0.824876C18.6386 0.861646 18.7193 0.91554 18.7872 0.983482C18.8552 1.05142 18.9091 1.13208 18.9458 1.22085C18.9826 1.30962 19.0015 1.40476 19.0015 1.50085C19.0015 1.59693 18.9826 1.69207 18.9458 1.78084C18.9091 1.86961 18.8552 1.95027 18.7872 2.01821L10.0183 10.7871C9.95045 10.8552 9.86981 10.9092 9.78103 10.946C9.69225 10.9828 9.59708 11.0018 9.50096 11.0018C9.40485 11.0018 9.30967 10.9828 9.22089 10.946C9.13212 10.9092 9.05148 10.8552 8.9836 10.7871L0.214683 2.01821C0.146632 1.95033 0.0926403 1.8697 0.0558014 1.78092C0.0189626 1.69214 0 1.59697 0 1.50085C0 1.40473 0.0189626 1.30956 0.0558014 1.22078C0.0926403 1.132 0.146632 1.05136 0.214683 0.983482Z" fill="#54595E"/>
</svg>
