<svg width="38" height="43" viewBox="0 0 38 43" fill="none" xmlns="http://www.w3.org/2000/svg">
<path d="M19.3007 2.5H19.3007C23.4395 2.49961 27.4248 4.06729 30.4541 6.88739C33.4834 9.70749 35.3318 13.5706 35.6271 17.6988L35.6271 17.699C35.9292 21.9061 34.9769 26.1426 32.4555 29.4577C29.1826 33.7524 25.8624 36.7088 20.5233 40.264C20.0988 40.5462 19.6004 40.6968 19.0906 40.6968C18.5808 40.6968 18.0823 40.5462 17.6578 40.264C12.3187 36.7088 8.99856 33.7524 5.72566 29.4577C3.20417 26.1426 2.25192 21.9061 2.55398 17.699L2.55399 17.6988C2.84921 13.5716 4.69673 9.70944 7.72473 6.88949C10.7527 4.06958 14.7364 2.50121 18.8741 2.5C18.8741 2.5 18.8742 2.5 18.8742 2.5H19.3007Z" fill="#D9BBA0" stroke="#534439"/>
<path d="M19.3007 2H18.8741C14.6099 2.00121 10.5045 3.61749 7.38398 6.52359C4.26346 9.42969 2.35951 13.4099 2.05527 17.6632C1.74646 21.9642 2.71745 26.3289 5.32798 29.7607C8.64208 34.1095 12.0071 37.1021 17.381 40.6804C17.8875 41.0171 18.4823 41.1968 19.0906 41.1968C19.6988 41.1968 20.2936 41.0171 20.8001 40.6804C26.174 37.1021 29.539 34.1095 32.8531 29.7607C35.4637 26.3289 36.4347 21.9642 36.1259 17.6632C35.8215 13.4088 33.9167 9.42768 30.7948 6.52142C27.673 3.61517 23.5659 1.9996 19.3007 2Z" stroke="#534439" stroke-width="3.43" stroke-linecap="round" stroke-linejoin="round"/>
<path d="M18.6998 15.4322L19.0873 15.9077L19.4749 15.4322C20.3924 14.3066 21.2909 13.7014 22.097 13.4455C22.8964 13.1918 23.6368 13.2705 24.2775 13.5691C25.5805 14.1762 26.5203 15.7254 26.5463 17.3677C26.5448 19.8614 25.0446 22.1877 23.2862 23.9236C22.4135 24.7851 21.4967 25.4812 20.7128 25.9588C20.3206 26.1977 19.9684 26.3778 19.6773 26.4966C19.3736 26.6205 19.1791 26.6598 19.0873 26.6598C18.9956 26.6598 18.8011 26.6205 18.4974 26.4966C18.2063 26.3778 17.8541 26.1977 17.4619 25.9588C16.678 25.4812 15.7612 24.7851 14.8885 23.9236C13.1301 22.1877 11.6299 19.8614 11.6284 17.3677C11.6544 15.7254 12.5942 14.1762 13.8972 13.5691C14.5379 13.2705 15.2782 13.1918 16.0777 13.4455C16.8838 13.7014 17.7823 14.3066 18.6998 15.4322Z" fill="white" stroke="#534439"/>
<path d="M19.0873 15.1163C15.2416 10.3983 11.1825 13.7506 11.1284 17.3639C11.1284 22.7442 17.5656 27.1598 19.0873 27.1598C20.6091 27.1598 27.0463 22.7442 27.0463 17.3639C26.9922 13.7506 22.9331 10.3983 19.0873 15.1163Z" stroke="#534439" stroke-width="3.43" stroke-linecap="round" stroke-linejoin="round"/>
</svg>
