<svg width="67" height="67" viewBox="0 0 67 67" fill="none" xmlns="http://www.w3.org/2000/svg">
<path d="M64.1931 33.3466C64.1931 43.2854 61.3994 50.9796 56.1895 56.1895C50.9796 61.3994 43.2854 64.1931 33.3466 64.1931C23.4077 64.1931 15.7136 61.3994 10.5037 56.1895C5.29376 50.9796 2.5 43.2854 2.5 33.3466C2.5 23.4077 5.29376 15.7136 10.5037 10.5037C15.7136 5.29376 23.4077 2.5 33.3466 2.5C43.2854 2.5 50.9796 5.29376 56.1895 10.5037C61.3994 15.7136 64.1931 23.4077 64.1931 33.3466Z" fill="#D9BBA0" stroke="#534439"/>
<path d="M50.7103 57.6914V60.2859C46.0583 62.8473 40.2426 64.1931 33.3466 64.1931C26.4502 64.1931 20.6344 62.8473 15.9822 60.2854V57.6914C16.9581 54.0686 19.0461 50.8321 21.9655 48.4458C25.1774 45.8206 29.1981 44.3865 33.3463 44.3865C37.4945 44.3865 41.5152 45.8206 44.727 48.4458C47.6463 50.8321 49.7346 54.0686 50.7103 57.6914Z" fill="white" stroke="#534439"/>
<path d="M51.2103 57.6257C50.2149 53.8761 48.0611 50.5254 45.0435 48.0587C41.7423 45.3604 37.6099 43.8865 33.3463 43.8865C29.0827 43.8865 24.9502 45.3604 21.6491 48.0587C18.6313 50.5254 16.4778 53.8761 15.4822 57.6257" stroke="#534439" stroke-width="3.43" stroke-linecap="round" stroke-linejoin="round"/>
<path d="M33.3466 64.6931C53.4084 64.6931 64.6931 53.4084 64.6931 33.3466C64.6931 13.2848 53.4084 2 33.3466 2C13.2848 2 2 13.2848 2 33.3466C2 53.4084 13.2848 64.6931 33.3466 64.6931Z" stroke="#534439" stroke-width="3.43" stroke-linecap="round" stroke-linejoin="round"/>
<path d="M43.3923 25.5941C43.3923 28.8778 42.4703 31.3727 40.796 33.047C39.1216 34.7214 36.6268 35.6434 33.343 35.6434C30.0593 35.6434 27.5644 34.7214 25.8901 33.047C24.2157 31.3727 23.2937 28.8778 23.2937 25.5941C23.2937 22.3103 24.2157 19.8155 25.8901 18.1411C27.5644 16.4668 30.0593 15.5448 33.343 15.5448C36.6268 15.5448 39.1216 16.4668 40.796 18.1411C42.4703 19.8155 43.3923 22.3103 43.3923 25.5941Z" fill="white" stroke="#534439"/>
<path d="M33.343 36.1434C40.0946 36.1434 43.8923 32.3457 43.8923 25.5941C43.8923 18.8425 40.0946 15.0448 33.343 15.0448C26.5915 15.0448 22.7937 18.8425 22.7937 25.5941C22.7937 32.3457 26.5915 36.1434 33.343 36.1434Z" stroke="#534439" stroke-width="3.43" stroke-linecap="round" stroke-linejoin="round"/>
</svg>
