<svg width="161" height="161" viewBox="0 0 161 161" fill="none" xmlns="http://www.w3.org/2000/svg">
<rect x="0.5" y="0.5" width="160" height="160" rx="1.5" fill="#F8F9FA"/>
<rect x="0.5" y="0.5" width="160" height="160" rx="1.5" stroke="#ADB5BD" stroke-dasharray="2 2"/>
<g clip-path="url(#clip0_2500_2561)">
<rect width="14" height="14" transform="translate(73.5 57.5)" fill="white" fill-opacity="0.01"/>
<path fill-rule="evenodd" clip-rule="evenodd" d="M80.4995 59.2492C80.6155 59.2492 80.7268 59.2953 80.8089 59.3773C80.8909 59.4594 80.937 59.5706 80.937 59.6867V64.0617H85.312C85.428 64.0617 85.5393 64.1078 85.6214 64.1898C85.7034 64.2719 85.7495 64.3831 85.7495 64.4992C85.7495 64.6152 85.7034 64.7265 85.6214 64.8085C85.5393 64.8906 85.428 64.9367 85.312 64.9367H80.937V69.3117C80.937 69.4277 80.8909 69.539 80.8089 69.621C80.7268 69.7031 80.6155 69.7492 80.4995 69.7492C80.3835 69.7492 80.2722 69.7031 80.1902 69.621C80.1081 69.539 80.062 69.4277 80.062 69.3117V64.9367H75.687C75.571 64.9367 75.4597 64.8906 75.3777 64.8085C75.2956 64.7265 75.2495 64.6152 75.2495 64.4992C75.2495 64.3831 75.2956 64.2719 75.3777 64.1898C75.4597 64.1078 75.571 64.0617 75.687 64.0617H80.062V59.6867C80.062 59.5706 80.1081 59.4594 80.1902 59.3773C80.2722 59.2953 80.3835 59.2492 80.4995 59.2492Z" fill="#212529"/>
</g>
<path d="M64.9461 93.372C64.9461 94.8227 64.5568 95.916 63.7781 96.652C63.0101 97.388 61.9008 97.756 60.4501 97.756C57.3248 97.756 55.7621 96.2947 55.7621 93.372V86.076H57.2821V93.372C57.2821 94.396 57.5541 95.1747 58.0981 95.708C58.6421 96.2307 59.4261 96.492 60.4501 96.492C61.4208 96.492 62.1568 96.2307 62.6581 95.708C63.1701 95.1747 63.4261 94.396 63.4261 93.372V86.076H64.9461V93.372ZM67.197 89.228H68.557V90.348H68.589C69.0157 89.4733 69.8957 89.036 71.229 89.036C72.445 89.036 73.3837 89.452 74.045 90.284C74.7063 91.116 75.037 92.1507 75.037 93.388C75.037 94.636 74.7117 95.6653 74.061 96.476C73.4103 97.276 72.477 97.676 71.261 97.676C70.7597 97.676 70.253 97.5747 69.741 97.372C69.2397 97.1693 68.8557 96.844 68.589 96.396H68.557V100.652H67.197V89.228ZM73.597 93.292C73.597 92.4493 73.3783 91.7293 72.941 91.132C72.5037 90.5347 71.869 90.236 71.037 90.236C70.1837 90.236 69.549 90.54 69.133 91.148C68.717 91.756 68.509 92.492 68.509 93.356C68.509 94.2413 68.7223 94.988 69.149 95.596C69.5863 96.1933 70.2423 96.492 71.117 96.492C71.981 96.492 72.6103 96.188 73.005 95.58C73.3997 94.9613 73.597 94.1987 73.597 93.292ZM76.7134 86.076H78.0734V97.5H76.7134V86.076ZM81.9083 91.084C81.4176 91.6387 81.1723 92.4013 81.1723 93.372C81.1723 94.3427 81.4176 95.1053 81.9083 95.66C82.3989 96.2147 83.0123 96.492 83.7483 96.492C84.4843 96.492 85.0976 96.2147 85.5883 95.66C86.0789 95.1053 86.3243 94.3427 86.3243 93.372C86.3243 92.4013 86.0789 91.6387 85.5883 91.084C85.0976 90.5187 84.4843 90.236 83.7483 90.236C83.0123 90.236 82.3989 90.5187 81.9083 91.084ZM79.7323 93.372C79.7323 92.1027 80.0843 91.0627 80.7883 90.252C81.4923 89.4413 82.4789 89.036 83.7483 89.036C85.0176 89.036 86.0043 89.4413 86.7083 90.252C87.4123 91.0627 87.7643 92.1027 87.7643 93.372C87.7643 94.6307 87.4123 95.6653 86.7083 96.476C86.0043 97.276 85.0176 97.676 83.7483 97.676C82.4789 97.676 81.4923 97.276 80.7883 96.476C80.0843 95.6653 79.7323 94.6307 79.7323 93.372ZM96.6958 97.468C96.4611 97.6067 96.1358 97.676 95.7198 97.676C94.9518 97.676 94.5678 97.2547 94.5678 96.412C93.8638 97.2547 92.8931 97.676 91.6558 97.676C90.8451 97.676 90.1838 97.4893 89.6718 97.116C89.1704 96.7427 88.9198 96.1613 88.9198 95.372C88.9198 94.924 88.9944 94.5453 89.1438 94.236C89.2931 93.916 89.5118 93.6653 89.7998 93.484C90.0984 93.3027 90.3864 93.1693 90.6638 93.084C90.9518 92.988 91.3038 92.9027 91.7198 92.828C91.9224 92.7853 92.1624 92.7427 92.4398 92.7C92.7171 92.6573 92.9411 92.6253 93.1118 92.604C93.2824 92.5827 93.4638 92.5507 93.6558 92.508C93.8584 92.4547 94.0131 92.396 94.1198 92.332C94.2264 92.2573 94.3171 92.1613 94.3918 92.044C94.4664 91.9267 94.5038 91.7827 94.5038 91.612C94.5038 90.6947 93.8904 90.236 92.6638 90.236C91.3411 90.236 90.6531 90.7587 90.5998 91.804H89.2398C89.2824 90.844 89.6238 90.1453 90.2638 89.708C90.9038 89.26 91.7304 89.036 92.7438 89.036C94.8131 89.036 95.8478 89.7933 95.8478 91.308V95.564C95.8478 95.9373 95.8691 96.188 95.9118 96.316C95.9544 96.4333 96.0771 96.492 96.2798 96.492C96.3758 96.492 96.5144 96.4653 96.6958 96.412V97.468ZM94.4878 93.228C94.2744 93.388 93.9171 93.5107 93.4158 93.596C92.9144 93.6813 92.4451 93.7453 92.0078 93.788C91.5811 93.82 91.1971 93.9587 90.8558 94.204C90.5251 94.4493 90.3598 94.8067 90.3598 95.276C90.3598 95.692 90.5091 96.0013 90.8078 96.204C91.1171 96.396 91.5011 96.492 91.9598 96.492C92.7811 96.492 93.4051 96.2947 93.8318 95.9C94.2691 95.5053 94.4878 95.0787 94.4878 94.62V93.228ZM98.9535 93.436C98.9535 94.2787 99.1722 94.9987 99.6095 95.596C100.047 96.1933 100.682 96.492 101.514 96.492C102.367 96.492 103.002 96.188 103.418 95.58C103.834 94.972 104.042 94.236 104.042 93.372C104.042 92.4867 103.823 91.7453 103.386 91.148C102.959 90.54 102.308 90.236 101.434 90.236C100.57 90.236 99.9402 90.5453 99.5455 91.164C99.1508 91.772 98.9535 92.5293 98.9535 93.436ZM105.354 97.5H103.994V96.38H103.962C103.535 97.244 102.655 97.676 101.322 97.676C100.106 97.676 99.1668 97.2653 98.5055 96.444C97.8442 95.612 97.5135 94.5773 97.5135 93.34C97.5135 92.1027 97.8388 91.0787 98.4895 90.268C99.1402 89.4467 100.074 89.036 101.29 89.036C101.78 89.036 102.282 89.1427 102.794 89.356C103.306 89.5587 103.695 89.884 103.962 90.332H103.994V86.076H105.354V97.5Z" fill="#6C757D"/>
<defs>
<clipPath id="clip0_2500_2561">
<rect width="14" height="14" fill="white" transform="translate(73.5 57.5)"/>
</clipPath>
</defs>
</svg>
